<svg id="Слой_1" data-name="Слой 1" xmlns="http://www.w3.org/2000/svg" width="15.8" height="11.64" viewBox="0 0 15.8 11.64"><defs><style>.cls-1{fill:none;stroke:#22a447;stroke-miterlimit:10;}</style></defs><path class="cls-1" d="M.64,10.54h.75a1.79,1.79,0,0,1,3.05,0h5.93V2.68H.64Z" transform="translate(-0.14 -2.18)"/><path class="cls-1" d="M12.88,9.69a1.79,1.79,0,0,1,1.52.85h1l-.55-3.63a.65.65,0,0,0-.52-.54l-3.45-.63v4.8h.52A1.79,1.79,0,0,1,12.88,9.69Z" transform="translate(-0.14 -2.18)"/><path class="cls-1" d="M1.11,11.51a1.81,1.81,0,1,0,3.61,0,1.87,1.87,0,0,0-.28-1H1.39A1.87,1.87,0,0,0,1.11,11.51Z" transform="translate(-0.14 -2.18)"/><path class="cls-1" d="M2.92,9.69a1.8,1.8,0,0,0-1.53.85H4.44A1.79,1.79,0,0,0,2.92,9.69Z" transform="translate(-0.14 -2.18)"/><path class="cls-1" d="M11.36,10.54a1.78,1.78,0,0,0-.28,1,1.8,1.8,0,1,0,3.6,0,1.78,1.78,0,0,0-.28-1Z" transform="translate(-0.14 -2.18)"/><path class="cls-1" d="M12.88,9.69a1.79,1.79,0,0,0-1.52.85h3A1.79,1.79,0,0,0,12.88,9.69Z" transform="translate(-0.14 -2.18)"/></svg>